<svg xmlns="http://www.w3.org/2000/svg" xmlns:xlink="http://www.w3.org/1999/xlink" viewBox="0 0 33.06 36.03"><defs><style>.cls-1{fill:#231f20;}.cls-2{fill:#fff;}.cls-3{fill:#21a6d2;}.cls-4{fill:url(#linear-gradient);}</style><linearGradient id="linear-gradient" x1="16.08" y1="0.18" x2="22.54" y2="20.15" gradientUnits="userSpaceOnUse"><stop offset="0" stop-color="#fff" stop-opacity="0"/><stop offset="1" stop-color="#fff"/></linearGradient></defs><g id="Layer_2" data-name="Layer 2"><g id="Layer_1-2" data-name="Layer 1"><polygon class="cls-1" points="8.13 1.35 8.13 1.35 8.13 1.35 8.13 1.35"/><path class="cls-2" d="M4.55,20.77C-.64,17.07,1.63,10.7,1.63,10.7s-.4,5.42,7.88,10.91,8,10.58,8,10.58c.88-7.73-11.86-12.87-13.8-19.58A9.49,9.49,0,0,1,5.16,4.53,16.53,16.53,0,0,0,16.53,33.06l.84,0C15.94,27.6,8.72,23.73,4.55,20.77Z"/><path class="cls-3" d="M29.57,6.37a7.55,7.55,0,0,0-3-4.51h0c3.82,4.3-.92,7.62-.92,7.62a2.92,2.92,0,0,0-2-1.2C26.45,7.05,27,5.13,27,3.71A16.53,16.53,0,0,0,9.71,1.47a1.65,1.65,0,0,1-1.58-.12h0C1.78,10,13.39,20,16.13,23.69a11.06,11.06,0,0,1,2.54,6.77c1.68-5.29-8.05-14.28-4.27-16.26a5.7,5.7,0,0,0,2.49-3c-5.27-3.22-2.27-7.23-2.27-7.23C13.57,8.43,18.81,9,18.81,9a4.67,4.67,0,0,1,1.6-.43,14.31,14.31,0,0,1,2.15,0c2.72-.06,2.73,2.09,4.58,4.11s2,3.16,3.27,4,.44,2.3.44,2.3a3,3,0,0,1-1.55,1.58c-1.22.58-1.81-.06-2.55-.26s-.89,1.1-2.44,2.39-4.17-.61-4.23,6.05c0,5.11-2.53,7.3-2.54,7.3h0a9.55,9.55,0,0,0,3.64-3.64,16.53,16.53,0,0,0,8.39-26Z"/><path class="cls-4" d="M29.57,6.37a7.55,7.55,0,0,0-3-4.51h0c3.82,4.3-.92,7.62-.92,7.62a2.92,2.92,0,0,0-2-1.2C26.45,7.05,27,5.13,27,3.71A16.53,16.53,0,0,0,9.71,1.47a1.65,1.65,0,0,1-1.58-.12h0C1.78,10,13.39,20,16.13,23.69a11.06,11.06,0,0,1,2.54,6.77c1.68-5.29-8.05-14.28-4.27-16.26a5.7,5.7,0,0,0,2.49-3c-5.27-3.22-2.27-7.23-2.27-7.23C13.57,8.43,18.81,9,18.81,9a4.67,4.67,0,0,1,1.6-.43,14.31,14.31,0,0,1,2.15,0c2.72-.06,2.73,2.09,4.58,4.11s2,3.16,3.27,4,.44,2.3.44,2.3a3,3,0,0,1-1.55,1.58c-1.22.58-1.81-.06-2.55-.26s-.89,1.1-2.44,2.39-4.17-.61-4.23,6.05c0,5.11-2.53,7.3-2.54,7.3h0a9.55,9.55,0,0,0,3.64-3.64,16.53,16.53,0,0,0,8.39-26Z"/><path class="cls-2" d="M32.38,18.18A.7.7,0,0,1,32,16.91a.69.69,0,0,1-.14-.4.68.68,0,0,1,.39-.62.63.63,0,0,1-.3-.54.65.65,0,0,1,.65-.65.68.68,0,0,1,.42.16,16.41,16.41,0,0,0-3.4-8.49,7.56,7.56,0,0,0-3-4.51h0c2.23,2.51,1.54,4.68.58,6.06a.36.36,0,0,1,.19.31A.38.38,0,0,1,27,8.6a.35.35,0,0,1-.26-.11,6.75,6.75,0,0,1-1.06,1,2.94,2.94,0,0,0-2-1.2C26.48,7.05,27,5.13,27,3.71A16.51,16.51,0,0,0,9.74,1.47a1.67,1.67,0,0,1-1.59-.12c-3.92,5.33-1,11.2,2.48,15.78a.4.4,0,0,1,0-.15.47.47,0,0,1,.47-.47.47.47,0,0,1,0,.94.51.51,0,0,1-.27-.09c.38.49.76,1,1.14,1.43a.53.53,0,0,1,.52-.44.54.54,0,0,1,0,1.08c.35.42.7.81,1,1.19a.59.59,0,0,1,.26-.28.14.14,0,0,1,0-.06.63.63,0,1,1,1.25,0,.61.61,0,0,1-.3.52.24.24,0,0,1,0,.08.62.62,0,0,1-.46.6l.3.34a.71.71,0,0,1,.54-.28l.1,0a.63.63,0,0,1,.17-1.19c-.27-.48-.52-.95-.75-1.4a.53.53,0,0,1,0,.12.58.58,0,1,1-.15-.38c-1-2.1-1.48-3.78-.08-4.51a5.75,5.75,0,0,0,2.49-3c-5.28-3.22-2.28-7.23-2.28-7.23C13.6,8.43,18.83,9,18.83,9a4.7,4.7,0,0,1,1.61-.43l.36,0a.29.29,0,0,1-.19-.26.31.31,0,0,1,.3-.3.3.3,0,0,1,.3.3.27.27,0,0,1-.15.24c.79,0,1.52,0,1.52,0,2.09,0,2.59,1.21,3.54,2.71a.44.44,0,0,1,.39-.24.46.46,0,0,1,.45.46.44.44,0,0,1-.4.44,8.1,8.1,0,0,0,.6.74,24,24,0,0,1,2.15,2.86.64.64,0,0,1,.46-.19.67.67,0,0,1,.41.16.58.58,0,0,1,0-.18.64.64,0,0,1,.64-.64.64.64,0,0,1,0,1.28.65.65,0,0,1-.41-.16.52.52,0,0,1,0,.18.63.63,0,0,1-.21.47l.24.18c.06,0,.1.09.15.13a.66.66,0,0,1,.41-.15A.69.69,0,0,1,31.13,18a2.76,2.76,0,0,1-.25,1,1.37,1.37,0,0,1-.07.16A.69.69,0,0,1,31,20.41a.66.66,0,0,1,.22.84l.19.07a.29.29,0,0,1,0-.09.71.71,0,0,1,.71-.71.69.69,0,0,1,.45.18c.08-.31.14-.62.2-.93a.71.71,0,1,1,.16-.92c.05-.37.09-.73.12-1.1A.72.72,0,0,1,32.38,18.18Zm-6-13a.29.29,0,0,1,.28.28.28.28,0,0,1-.28.27.27.27,0,0,1-.27-.27A.28.28,0,0,1,26.37,5.13ZM25.13,3a.17.17,0,0,1,0,.34.17.17,0,0,1,0-.34ZM25,6.72a.31.31,0,0,1,.3.3.3.3,0,0,1-.3.3.29.29,0,0,1-.3-.3A.3.3,0,0,1,25,6.72ZM7.56,7.05a.12.12,0,0,1,.12.12.12.12,0,0,1-.24,0A.12.12,0,0,1,7.56,7.05Zm0,3.43a.22.22,0,1,1,.22-.22A.21.21,0,0,1,7.59,10.48ZM13,12.31a.36.36,0,1,1-.36.36A.36.36,0,0,1,13,12.31ZM11.9,6.45a.15.15,0,0,1,.15.15.15.15,0,0,1-.3,0A.15.15,0,0,1,11.9,6.45ZM10.6,4.9a.1.1,0,0,1,.1.09.1.1,0,0,1-.1.1.09.09,0,0,1-.09-.1A.09.09,0,0,1,10.6,4.9ZM8.87,6.49A.12.12,0,1,1,9,6.61.12.12,0,0,1,8.87,6.49Zm.38,5.15a.3.3,0,1,1-.3.3A.3.3,0,0,1,9.25,11.64Zm.1,2.58A.35.35,0,0,1,9,13.87a.36.36,0,0,1,.71,0A.35.35,0,0,1,9.35,14.22Zm.31-3.84a.26.26,0,0,1,.26-.27.27.27,0,0,1,0,.53A.26.26,0,0,1,9.66,10.38Zm.79,4.93A.41.41,0,0,1,10,14.9a.41.41,0,0,1,.41-.41.42.42,0,0,1,.41.41A.41.41,0,0,1,10.45,15.31ZM11,13.45a.36.36,0,1,1,0-.71.36.36,0,0,1,0,.71Zm.69,3.32a.47.47,0,1,1,.47-.47A.47.47,0,0,1,11.7,16.77Zm.23-5.42a.3.3,0,1,1,.29-.3A.29.29,0,0,1,11.93,11.35Zm.85,3.4a.43.43,0,1,1,0,.86.43.43,0,0,1,0-.86Zm.13,3.09a.5.5,0,0,1-.5-.5.5.5,0,0,1,.5-.51.51.51,0,0,1,.51.51A.5.5,0,0,1,12.91,17.84Zm3.37-7a.34.34,0,0,1,.34.34.35.35,0,0,1-.34.34.34.34,0,0,1-.34-.34A.34.34,0,0,1,16.28,10.84ZM15.11,12.3a.39.39,0,0,1,0,.77.39.39,0,1,1,0-.77Zm-.9-2.54a.29.29,0,1,1-.29.28A.29.29,0,0,1,14.21,9.76Zm-.1-6A.09.09,0,0,1,14,3.7a.09.09,0,0,1,.09-.09.09.09,0,0,1,.08.09A.09.09,0,0,1,14.11,3.78ZM15.9,5.83a.16.16,0,1,1,.16-.16A.16.16,0,0,1,15.9,5.83Zm1.67-2.06a.12.12,0,0,1,0-.24.12.12,0,1,1,0,.24Zm.85,4.44A.26.26,0,1,1,18.68,8,.26.26,0,0,1,18.42,8.21Zm2.51-2.34a.21.21,0,0,1-.21-.21.21.21,0,0,1,.42,0A.21.21,0,0,1,20.93,5.87Zm1,1a.25.25,0,0,1-.25-.25.25.25,0,1,1,.5,0A.25.25,0,0,1,22,6.88Zm.22-3.77A.14.14,0,0,1,22.05,3a.15.15,0,0,1,.14-.15.15.15,0,0,1,.14.15A.15.15,0,0,1,22.19,3.11ZM23,7.73a.3.3,0,1,1,0-.59.3.3,0,0,1,0,.59Zm.47-2.33a.23.23,0,0,1,0-.46.23.23,0,0,1,0,.46Zm2.6,4.86a.39.39,0,0,1-.39-.4.38.38,0,0,1,.39-.39.39.39,0,0,1,.4.39A.4.4,0,0,1,26.05,10.26ZM31.37,10a.47.47,0,0,1,.48.48.48.48,0,0,1-.48.48.49.49,0,0,1-.48-.48A.48.48,0,0,1,31.37,10ZM29.58,7.46a.36.36,0,1,1-.71,0,.36.36,0,0,1,.71,0Zm-.86-2.3a.29.29,0,1,1-.29.29A.29.29,0,0,1,28.72,5.16ZM28.49,9.8a.44.44,0,1,1-.44.44A.44.44,0,0,1,28.49,9.8Zm-1.57,1a.45.45,0,1,1,.45.45A.45.45,0,0,1,26.92,10.8ZM27.63,13a.52.52,0,0,1,.52-.52.52.52,0,0,1,0,1A.52.52,0,0,1,27.63,13ZM29,14.6a.57.57,0,1,1,.57-.57A.57.57,0,0,1,29,14.6Zm.51-1.51a.52.52,0,0,1-.52-.52.52.52,0,1,1,1,0A.51.51,0,0,1,29.46,13.09Zm.07-1.26a.49.49,0,1,1,.5-.49A.49.49,0,0,1,29.53,11.83Zm.52-2.53a.41.41,0,1,1,0-.82.41.41,0,1,1,0,.82Zm1.22,4.07a.55.55,0,0,1-.55-.55.55.55,0,0,1,.39-.52.52.52,0,0,1-.44-.51.52.52,0,0,1,.52-.52.53.53,0,0,1,.53.52.51.51,0,0,1-.37.49.54.54,0,0,1,.47.54A.55.55,0,0,1,31.27,13.37Zm.33.67a.6.6,0,0,1,.6-.6.61.61,0,1,1,0,1.21A.6.6,0,0,1,31.6,14Z"/></g></g></svg>